HIERARCHY
ROOT root
{
	OFFSET	0	13.1	24.9
	CHANNELS 6  Xposition Yposition Zposition Xrotation Yrotation Zrotation
	JOINT spine_1
	{
		OFFSET	0	9.99999	0
		CHANNELS 3  Xrotation Yrotation Zrotation
		JOINT spine_2
		{
			OFFSET	0	112	-10
			CHANNELS 3  Xrotation Yrotation Zrotation
			JOINT spine_3
			{
				OFFSET	0	206.5	19.3
				CHANNELS 3  Xrotation Yrotation Zrotation
				JOINT spine_4
				{
					OFFSET	0	110.4	14.6
					CHANNELS 3  Xrotation Yrotation Zrotation
					JOINT neck_1
					{
						OFFSET	0	71.8	-50.3
						CHANNELS 3  Xrotation Yrotation Zrotation
						JOINT neck_2
						{
							OFFSET	0	86.2	-25.8
							CHANNELS 3  Xrotation Yrotation Zrotation
							JOINT head_ee
							{
								OFFSET	0	179.8	-8.7
								CHANNELS 3  Xrotation Yrotation Zrotation
								End Site
								{
									OFFSET	1	0	0
								}
							}
						}
					}
					JOINT left_clavicle
					{
						OFFSET	-43.2	22.4	-70.8
						CHANNELS 3  Xrotation Yrotation Zrotation
						JOINT left_shoulder
						{
							OFFSET	-93.9	-5.79999	48.7
							CHANNELS 3  Xrotation Yrotation Zrotation
							JOINT left_elbow
							{
								OFFSET	-291.4	-30.8	15.2
								CHANNELS 3  Xrotation Yrotation Zrotation
								JOINT left_lowarm_twist
								{
									OFFSET	-110.7	-3.89999	13.6
									CHANNELS 3  Xrotation Yrotation Zrotation
									JOINT left_hand
									{
										OFFSET	-110.7	-3.89999	13.6
										CHANNELS 3  Xrotation Yrotation Zrotation
										JOINT left_ee
										{
											OFFSET	-80.8	-5.10001	12.1
											CHANNELS 3  Xrotation Yrotation Zrotation
											End Site
											{
												OFFSET	1	0	0
											}
										}
									}
								}
							}
						}
					}
					JOINT right_clavicle
					{
						OFFSET	43.2	22.4	-70.8
						CHANNELS 3  Xrotation Yrotation Zrotation
						JOINT right_shoulder
						{
							OFFSET	93.9	-5.79999	48.7
							CHANNELS 3  Xrotation Yrotation Zrotation
							JOINT right_elbow
							{
								OFFSET	291.4	-30.8	15.2
								CHANNELS 3  Xrotation Yrotation Zrotation
								JOINT right_lowarm_twist
								{
									OFFSET	110.7	-3.89999	13.6
									CHANNELS 3  Xrotation Yrotation Zrotation
									JOINT right_hand
									{
										OFFSET	110.7	-3.89999	13.6
										CHANNELS 3  Xrotation Yrotation Zrotation
										JOINT right_ee
										{
											OFFSET	80.8	-5.10001	12.1
											CHANNELS 3  Xrotation Yrotation Zrotation
											End Site
											{
												OFFSET	1	0	0
											}
										}
									}
								}
							}
						}
					}
				}
			}
		}
	}
	JOINT left_hip
	{
		OFFSET	-82.8	-127.5	0.300001
		CHANNELS 3  Xrotation Yrotation Zrotation
		JOINT left_knee
		{
			OFFSET	-28.2	-396.7	2.2
			CHANNELS 3  Xrotation Yrotation Zrotation
			JOINT left_ankle
			{
				OFFSET	-11.7	-411.3	35.4
				CHANNELS 3  Xrotation Yrotation Zrotation
				JOINT left_toes
				{
					OFFSET	0	-60	-88.6
					CHANNELS 3  Xrotation Yrotation Zrotation
					JOINT left_foot_ee
					{
						OFFSET	-22.5	-16.5	-42.2
						CHANNELS 3  Xrotation Yrotation Zrotation
						End Site
						{
							OFFSET	1	0	0
						}
					}
				}
			}
		}
	}
	JOINT right_hip
	{
		OFFSET	82.8	-127.5	0.300001
		CHANNELS 3  Xrotation Yrotation Zrotation
		JOINT right_knee
		{
			OFFSET	28.2	-396.7	2.2
			CHANNELS 3  Xrotation Yrotation Zrotation
			JOINT right_ankle
			{
				OFFSET	11.7	-411.3	35.4
				CHANNELS 3  Xrotation Yrotation Zrotation
				JOINT right_toes
				{
					OFFSET	0	-60	-88.6
					CHANNELS 3  Xrotation Yrotation Zrotation
					JOINT right_foot_ee
					{
						OFFSET	22.5	-16.5	-42.2
						CHANNELS 3  Xrotation Yrotation Zrotation
						End Site
						{
							OFFSET	1	0	0
						}
					}
				}
			}
		}
	}
}
MOTION
Frames: 13
Frame Time: 0.02
799.562744257 612.512 -1624.14562969 24.7758592902 74.2397517842 -19.519409929 -2.69269 0.0402379 -0.974481 -2.69217 0.102162 -0.969947 -2.69341 0.34699 -0.911505 -2.69452 0.198688 -0.954861 -6.52799 11.6103 3.42677 -6.49031 19.0504 5.71096 -0.0 0.0 -0.0 2.13887 21.3465 5.54347 18.6224 -13.5951 78.399 1.74318 -40.8076 0.648456 -18.3494 -0.994391 2.11512 0.892239 9.33579 9.65633 -0.0 0.0 -0.0 9.63011 -4.80043 -18.6191 -16.7433 14.932 -58.5465 0.607649 16.7525 -0.0894733 -54.6507 4.62599 -4.90376 -12.3137 -33.518 68.39 0.0 0.0 0.0 -3.30595 22.0716 -7.37979 6.27473 -0.308758 -0.9126 21.0606 -29.7859 -3.57026 -15.5206 0.0 0.0 -0.0 0.0 -0.0 12.8924 -4.63539 3.40647 -56.8054 1.86508 -8.16417 31.3751 -21.7604 4.19008 8.79516 -0.0 -0.0 0.0 0.0 0.0 
792.690992934 616.342 -1627.32347557 17.8416160959 73.3092384697 -13.3496729545 -2.42791 0.134189 -0.90176 -2.42748 0.191296 -0.891395 -2.43016 0.409318 -0.814645 -2.43098 0.275528 -0.86906 -7.74072 11.9291 4.98199 -7.71342 18.7315 7.49424 -0.0 0.0 -0.0 2.13921 22.1921 5.58571 19.2488 -14.6785 77.9649 1.84892 -42.4824 0.718731 -19.3545 -1.06794 2.22074 1.02287 8.55915 10.2176 -0.0 0.0 -0.0 9.8925 -5.46764 -19.0842 -18.5196 15.3162 -58.1148 0.50134 13.9474 -0.0613235 -57.8399 5.0154 -5.02887 -12.3814 -33.832 68.3422 0.0 0.0 0.0 -0.359932 22.0457 -7.06244 4.29591 -0.200593 -0.628445 18.8148 -28.1069 -3.16322 -14.4142 0.0 0.0 -0.0 0.0 -0.0 14.9945 -3.84332 2.99192 -46.6752 0.945093 -6.9062 28.8246 -14.2122 3.79739 6.3441 -0.0 -0.0 0.0 0.0 0.0 
788.459042419 621.684 -1628.22464062 17.2921813723 72.5449956285 -13.4039160808 -2.70488 0.246303 -0.657373 -2.70469 0.287633 -0.640369 -2.70786 0.442074 -0.545324 -2.70811 0.350404 -0.608295 -7.30396 13.1942 6.21387 -7.22968 20.1362 8.91085 -0.0 0.0 -0.0 2.3242 21.8243 5.83091 19.9086 -15.6026 76.8609 1.93388 -43.7661 0.77681 -20.7532 -1.17336 2.36558 0.847113 7.961 8.83449 -0.0 0.0 -0.0 10.1107 -5.80922 -19.484 -19.07 16.4696 -58.0637 0.445797 12.4532 -0.0486389 -60.1761 5.30467 -5.10663 -12.4029 -33.8994 68.472 0.0 0.0 0.0 -2.48666 22.1308 -5.82998 6.65612 -0.330733 -0.966936 17.144 -28.6917 -2.93005 -14.3123 0.0 0.0 -0.0 0.0 -0.0 14.4102 -6.26993 3.03785 -39.005 0.40468 -5.85849 26.7184 -10.8854 3.53769 2.03357 -0.0 -0.0 0.0 0.0 0.0 
780.954678223 621.263 -1629.41527508 13.9815716703 72.1015462735 -10.8184244353 -2.61791 0.335055 -0.51962 -2.61783 0.36744 -0.497247 -2.62111 0.481967 -0.387266 -2.62108 0.414758 -0.458523 -7.76329 14.435 7.07046 -7.68449 21.9535 10.0901 -0.0 0.0 -0.0 2.49294 22.0683 6.08067 21.1046 -16.5027 76.1999 2.01696 -44.9702 0.834908 -21.9344 -1.26514 2.48587 0.940543 8.0369 9.47736 -0.0 0.0 -0.0 10.2871 -6.52979 -19.7642 -19.4098 16.7157 -58.0201 0.395299 11.0796 -0.0383404 -61.7809 5.50503 -5.15316 -12.3725 -33.8155 68.2355 0.0 0.0 0.0 -2.65135 22.7611 -4.24732 6.88625 -0.344168 -0.999654 18.1871 -27.4784 -3.04488 -13.6579 0.0 0.0 -0.0 0.0 -0.0 14.5752 -9.82171 3.46998 -30.5353 -0.0231923 -4.63093 26.6881 -4.56543 3.52585 0.271288 -0.0 -0.0 0.0 0.0 0.0 
774.272442489 622.04 -1630.57776608 11.3307117862 71.2729483263 -8.67119171615 -2.51807 0.372227 -0.530533 -2.518 0.405231 -0.505772 -2.5217 0.520014 -0.386786 -2.52162 0.452403 -0.464058 -8.16167 14.0699 8.14616 -8.04855 20.598 11.1218 -0.0 0.0 -0.0 2.78452 22.0352 6.49326 21.4727 -17.0619 75.309 2.04612 -45.3812 0.85559 -22.768 -1.3314 2.56964 0.934012 8.16069 9.48185 -0.0 0.0 -0.0 10.2873 -7.00789 -19.7186 -19.7727 16.8075 -57.954 0.363341 10.2035 -0.0324387 -62.7987 5.63272 -5.17975 -12.3566 -33.7548 68.188 0.0 0.0 0.0 -2.61462 22.8463 -3.78291 7.03636 -0.353003 -1.02097 17.9796 -27.9358 -3.03036 -13.5941 0.0 0.0 -0.0 0.0 -0.0 14.4817 -7.80454 3.11333 -25.348 -0.193958 -3.85343 24.6057 1.13818 3.31567 -1.88946 0.0 0.0 0.0 0.0 0.0 
768.304104249 623.391 -1631.68627824 10.2342063267 69.7611903521 -8.61937673366 -2.52766 0.174245 -0.211385 -2.52765 0.187343 -0.199869 -2.52834 0.231831 -0.145944 -2.52831 0.205872 -0.180726 -9.67038 14.127 8.6427 -9.59564 20.7294 11.8575 -0.0 0.0 -0.0 2.61708 22.65 6.27685 21.8915 -17.8792 75.3581 2.07065 -45.7224 0.873102 -24.9062 -1.50689 2.78002 0.977307 8.11652 9.74956 -0.0 0.0 -0.0 10.6978 -6.68618 -20.5544 -20.3194 16.5375 -56.8539 0.333055 9.36878 -0.0272909 -65.4556 5.96798 -5.23838 -12.2021 -32.9893 68.484 0.0 0.0 0.0 -2.95295 23.0955 -2.36017 5.91111 -0.288144 -0.86066 19.3251 -27.9901 -3.23509 -11.1694 0.0 0.0 -0.0 0.0 -0.0 14.5625 -8.6656 3.0548 -15.6783 -0.322067 -2.37696 20.4176 9.67041 2.90521 -6.51295 0.0 0.0 0.0 0.0 0.0 
767.930117042 623.391 -1633.74247012 10.0308308568 69.3368193729 -8.40232202906 -2.52766 0.174245 -0.211385 -2.52765 0.187343 -0.199869 -2.52834 0.231831 -0.145944 -2.52831 0.205872 -0.180726 -9.67038 14.127 8.6427 -9.59564 20.7294 11.8575 -0.0 0.0 -0.0 2.61708 22.65 6.27685 21.8915 -17.8792 75.3581 2.07065 -45.7224 0.873102 -24.9062 -1.50689 2.78002 0.977307 8.11652 9.74956 -0.0 0.0 -0.0 10.6978 -6.68618 -20.5544 -20.3194 16.5375 -56.8539 0.333055 9.36878 -0.0272909 -65.4556 5.96798 -5.23838 -12.2021 -32.9893 68.484 0.0 0.0 0.0 -2.95295 23.0955 -2.36017 5.91111 -0.288144 -0.86066 19.3251 -27.9901 -3.23509 -11.1694 0.0 0.0 -0.0 0.0 -0.0 14.5625 -8.6656 3.0548 -15.6783 -0.322067 -2.37696 20.4176 9.67041 2.90521 -6.51295 0.0 0.0 0.0 0.0 0.0 
767.87528325 623.391 -1634.05153789 10.0010216691 69.2730586212 -8.37045672111 -2.52766 0.174245 -0.211385 -2.52765 0.187343 -0.199869 -2.52834 0.231831 -0.145944 -2.52831 0.205872 -0.180726 -9.67038 14.127 8.6427 -9.59564 20.7294 11.8575 -0.0 0.0 -0.0 2.61708 22.65 6.27685 21.8915 -17.8792 75.3581 2.07065 -45.7224 0.873102 -24.9062 -1.50689 2.78002 0.977307 8.11652 9.74956 -0.0 0.0 -0.0 10.6978 -6.68618 -20.5544 -20.3194 16.5375 -56.8539 0.333055 9.36878 -0.0272909 -65.4556 5.96798 -5.23838 -12.2021 -32.9893 68.484 0.0 0.0 0.0 -2.95295 23.0955 -2.36017 5.91111 -0.288144 -0.86066 19.3251 -27.9901 -3.23509 -11.1694 0.0 0.0 -0.0 0.0 -0.0 14.5625 -8.6656 3.0548 -15.6783 -0.322067 -2.37696 20.4176 9.67041 2.90521 -6.51295 0.0 0.0 0.0 0.0 0.0 
707.61669157 625.15 -1672.72600116 -0.111061189943 69.5662335756 3.58361405684 -0.771047 -0.262735 -0.134553 -0.771073 -0.25364 -0.150998 -0.770397 -0.213519 -0.203823 -0.770372 -0.243029 -0.167543 -8.2523 13.0574 2.22774 -8.31842 22.8696 5.13531 -0.0 0.0 -0.0 5.1076 23.9248 9.74479 20.5871 -22.5291 70.6259 1.87351 -42.8595 0.735396 -35.3519 -2.47095 3.70724 1.00697 4.40509 8.50592 -0.0 0.0 -0.0 10.8686 -9.1323 -20.6063 -24.5638 15.7524 -58.084 0.171174 4.84691 -0.00724457 -74.7626 7.15454 -5.31955 -11.5141 -29.5701 68.6787 0.0 0.0 0.0 -2.21592 20.7307 -5.98109 7.29294 -0.368233 -1.05734 24.0528 -24.9209 -3.78038 -7.69018 0.0 0.0 -0.0 0.0 -0.0 10.0113 -6.48782 -3.69205 -1.32261 -0.0521948 -0.196258 6.7202 29.3096 1.21505 -6.47794 0.0 0.0 0.0 0.0 0.0 
707.562376558 625.15 -1674.82317339 -0.109221585869 69.2062733196 3.58164862528 -0.771047 -0.262735 -0.134553 -0.771073 -0.25364 -0.150998 -0.770397 -0.213519 -0.203823 -0.770372 -0.243029 -0.167543 -8.2523 13.0574 2.22774 -8.31842 22.8696 5.13531 -0.0 0.0 -0.0 5.1076 23.9248 9.74479 20.5871 -22.5291 70.6259 1.87351 -42.8595 0.735396 -35.3519 -2.47095 3.70724 1.00697 4.40509 8.50592 -0.0 0.0 -0.0 10.8686 -9.1323 -20.6063 -24.5638 15.7524 -58.084 0.171174 4.84691 -0.00724457 -74.7626 7.15454 -5.31955 -11.5141 -29.5701 68.6787 0.0 0.0 0.0 -2.21592 20.7307 -5.98109 7.29294 -0.368233 -1.05734 24.0528 -24.9209 -3.78038 -7.69018 0.0 0.0 -0.0 0.0 -0.0 10.0113 -6.48782 -3.69205 -1.32261 -0.0521948 -0.196258 6.7202 29.3096 1.21505 -6.47794 0.0 0.0 0.0 0.0 0.0 
707.574931253 625.15 -1674.29017367 -0.109682887024 69.2977523638 3.58214191744 -0.771047 -0.262735 -0.134553 -0.771073 -0.25364 -0.150998 -0.770397 -0.213519 -0.203823 -0.770372 -0.243029 -0.167543 -8.2523 13.0574 2.22774 -8.31842 22.8696 5.13531 -0.0 0.0 -0.0 5.1076 23.9248 9.74479 20.5871 -22.5291 70.6259 1.87351 -42.8595 0.735396 -35.3519 -2.47095 3.70724 1.00697 4.40509 8.50592 -0.0 0.0 -0.0 10.8686 -9.1323 -20.6063 -24.5638 15.7524 -58.084 0.171174 4.84691 -0.00724457 -74.7626 7.15454 -5.31955 -11.5141 -29.5701 68.6787 0.0 0.0 0.0 -2.21592 20.7307 -5.98109 7.29294 -0.368233 -1.05734 24.0528 -24.9209 -3.78038 -7.69018 0.0 0.0 -0.0 0.0 -0.0 10.0113 -6.48782 -3.69205 -1.32261 -0.0521948 -0.196258 6.7202 29.3096 1.21505 -6.47794 0.0 0.0 0.0 0.0 0.0 
707.506680614 625.15 -1677.889893 -0.106646473026 68.6799878588 3.57888928245 -0.771047 -0.262735 -0.134553 -0.771073 -0.25364 -0.150998 -0.770397 -0.213519 -0.203823 -0.770372 -0.243029 -0.167543 -8.2523 13.0574 2.22774 -8.31842 22.8696 5.13531 -0.0 0.0 -0.0 5.1076 23.9248 9.74479 20.5871 -22.5291 70.6259 1.87351 -42.8595 0.735396 -35.3519 -2.47095 3.70724 1.00697 4.40509 8.50592 -0.0 0.0 -0.0 10.8686 -9.1323 -20.6063 -24.5638 15.7524 -58.084 0.171174 4.84691 -0.00724457 -74.7626 7.15454 -5.31955 -11.5141 -29.5701 68.6787 0.0 0.0 0.0 -2.21592 20.7307 -5.98109 7.29294 -0.368233 -1.05734 24.0528 -24.9209 -3.78038 -7.69018 0.0 0.0 -0.0 0.0 -0.0 10.0113 -6.48782 -3.69205 -1.32261 -0.0521948 -0.196258 6.7202 29.3096 1.21505 -6.47794 0.0 0.0 0.0 0.0 0.0 
707.476180277 625.15 -1682.81143519 -0.102776485794 67.8355111186 3.5747230103 -0.771047 -0.262735 -0.134553 -0.771073 -0.25364 -0.150998 -0.770397 -0.213519 -0.203823 -0.770372 -0.243029 -0.167543 -8.2523 13.0574 2.22774 -8.31842 22.8696 5.13531 -0.0 0.0 -0.0 5.1076 23.9248 9.74479 20.5871 -22.5291 70.6259 1.87351 -42.8595 0.735396 -35.3519 -2.47095 3.70724 1.00697 4.40509 8.50592 -0.0 0.0 -0.0 10.8686 -9.1323 -20.6063 -24.5638 15.7524 -58.084 0.171174 4.84691 -0.00724457 -74.7626 7.15454 -5.31955 -11.5141 -29.5701 68.6787 0.0 0.0 0.0 -2.21592 20.7307 -5.98109 7.29294 -0.368233 -1.05734 24.0528 -24.9209 -3.78038 -7.69018 0.0 0.0 -0.0 0.0 -0.0 10.0113 -6.48782 -3.69205 -1.32261 -0.0521948 -0.196258 6.7202 29.3096 1.21505 -6.47794 0.0 0.0 0.0 0.0 0.0 
